<svg width="130" height="13" viewBox="0 0 130 13" fill="none" xmlns="http://www.w3.org/2000/svg">
<path d="M0 0.992676H2.2798V11.871H0V0.992676Z" fill="#000095"/>
<path d="M4.82439 9.37024V5.99606H3.41797V4.17593H4.82439V2.84376L6.99989 1.21545V4.17593H9.13118V5.99606H6.99989V9.07499C6.99989 9.87411 7.25183 10.111 7.96167 10.111C8.24278 10.111 8.76079 10.0518 9.07196 9.97754V11.8719C8.79085 11.9904 7.9325 12.0646 7.65139 12.0646C5.8012 12.0646 4.82439 11.2655 4.82439 9.37113V9.37024Z" fill="#000095"/>
<path d="M11.2483 3.47921H10.0195V0.992554H12.5062V3.41998C12.5062 4.84055 11.5444 5.66973 10.0195 5.80321V4.75215C10.9079 4.6779 11.2483 4.29336 11.2483 3.47921Z" fill="#000095"/>
<path d="M12.7275 9.87323L14.7704 8.99985C14.8447 10.0951 15.6288 10.4204 16.4721 10.4204C17.0494 10.4204 17.5974 10.1543 17.5974 9.72472C17.5974 8.34835 12.9202 9.53201 12.9202 6.45397C12.9202 4.95914 14.4451 3.87891 16.2361 3.87891C18.1605 3.87891 19.4777 4.72223 19.818 6.06943L17.7751 6.82436C17.7309 5.98103 17.1386 5.55141 16.2361 5.55141C15.5404 5.55141 15.1408 5.83252 15.1408 6.30634C15.1408 7.56425 19.9064 6.46899 19.9064 9.57709C19.9064 11.353 18.2781 12.0929 16.473 12.0929C14.5194 12.0929 13.0246 11.3672 12.7284 9.87235L12.7275 9.87323Z" fill="#000095"/>
<path d="M40.9951 12.094C44.1421 12.094 46.6932 9.54284 46.6932 6.39582C46.6932 3.2488 44.1421 0.697632 40.9951 0.697632C37.848 0.697632 35.2969 3.2488 35.2969 6.39582C35.2969 9.54284 37.848 12.094 40.9951 12.094Z" fill="#0000AA"/>
<path d="M38.0645 6.39573L37.4837 7.9489H37.9116L38.6064 6.82624C38.6064 6.82624 39.3869 6.94646 40.8765 6.96679L39.7847 10.4745H40.3461L42.4261 6.95353H44.3718C44.3718 6.95353 44.7386 6.95 45.0957 6.75287C45.3857 6.59287 45.3857 6.17827 45.0957 6.01827C44.7386 5.82114 44.3718 5.81761 44.3718 5.81761L42.4199 5.83794L40.3399 2.31702H39.7786L40.8703 5.82468C39.3808 5.84501 38.6002 5.96523 38.6002 5.96523L37.9054 4.85583H37.4775L38.0645 6.39573Z" fill="white"/>
<path d="M49.9229 8.8815L52.0541 7.90469C52.0541 9.29609 53.0018 10.1394 54.4666 10.1394C55.5768 10.1394 56.4352 9.63642 56.4352 8.82227C56.4352 6.54247 50.1889 8.45188 50.1889 4.08586C50.1889 2.07302 52.0091 0.696655 54.3331 0.696655C56.6571 0.696655 58.2995 2.058 58.5957 3.78973L56.5678 4.67814C56.5678 3.49448 55.6944 2.65027 54.3331 2.65027C53.2528 2.65027 52.4829 3.13911 52.4829 3.92321C52.4829 6.26224 58.7291 4.30774 58.7291 8.74801C58.7291 10.8943 56.8348 12.093 54.4666 12.093C52.0983 12.093 50.2924 10.9978 49.9229 8.8815Z" fill="#000095"/>
<path d="M59.4248 8.052C59.4248 5.62457 61.0681 3.87781 63.3771 3.87781C65.6861 3.87781 67.0333 5.50611 67.0333 7.85929C67.0333 8.12537 67.0183 8.34813 66.9741 8.67344H61.7347C61.9123 9.90218 62.593 10.3168 63.5407 10.3168C64.4883 10.3168 65.0205 9.94638 65.4059 9.11808L66.9307 10.5245C66.1467 11.5756 64.9329 12.0936 63.4673 12.0936C60.9364 12.0936 59.4266 10.4061 59.4266 8.05288L59.4248 8.052ZM64.7234 7.19365C64.7385 6.2911 64.2646 5.65462 63.317 5.65462C62.5179 5.65462 61.9256 6.11341 61.7479 7.19365H64.7225H64.7234Z" fill="#000095"/>
<path d="M67.9199 9.79908C67.9199 8.46691 68.9409 7.68281 70.5401 7.40171C72.5087 7.06137 72.834 7.06137 72.834 6.4691C72.834 5.87683 72.3602 5.56655 71.5319 5.56655C70.525 5.56655 69.9336 6.18799 69.9336 7.10557L68.0242 6.36567C68.3495 4.93008 69.6817 3.89404 71.5319 3.89404C73.604 3.89404 74.9512 4.87085 74.9512 6.67683V10.2437L75.2323 11.872H73.2787L72.9675 11.0287C72.4786 11.6652 71.5911 12.0798 70.5843 12.0798C69.0152 12.0798 67.9199 11.2364 67.9199 9.79996V9.79908ZM71.0872 10.4798C72.316 10.4798 72.834 9.754 72.834 8.80725V8.36348C72.6121 8.51111 72.2417 8.58537 71.1615 8.80725C70.51 8.94073 70.1847 9.14758 70.1847 9.6656C70.1847 10.1244 70.51 10.4798 71.0872 10.4798Z" fill="#000095"/>
<path d="M75.9707 9.87311L78.0136 8.99973C78.0879 10.095 78.8719 10.4203 79.7153 10.4203C80.2925 10.4203 80.8406 10.1542 80.8406 9.7246C80.8406 8.34823 76.1634 9.53189 76.1634 6.45384C76.1634 4.95902 77.6883 3.87878 79.4792 3.87878C81.4037 3.87878 82.7208 4.72211 83.0612 6.06931L81.0183 6.82423C80.9741 5.98091 80.3818 5.55129 79.4792 5.55129C78.7835 5.55129 78.384 5.8324 78.384 6.30621C78.384 7.56413 83.1496 6.46887 83.1496 9.57697C83.1496 11.3529 81.5213 12.0928 79.7162 12.0928C77.7625 12.0928 76.2677 11.3679 75.9716 9.87222L75.9707 9.87311Z" fill="#000095"/>
<path d="M83.7715 7.99375C83.7715 5.59637 85.5624 3.87878 88.0191 3.87878C90.4757 3.87878 92.2666 5.59549 92.2666 7.99375C92.2666 10.392 90.4757 12.0937 88.0191 12.0937C85.5624 12.0937 83.7715 10.377 83.7715 7.99375ZM88.0191 10.095C89.1444 10.095 90.0027 9.29586 90.0027 7.99286C90.0027 6.68987 89.1444 5.8766 88.0191 5.8766C86.8937 5.8766 86.0354 6.67572 86.0354 7.99286C86.0354 9.31001 86.8937 10.095 88.0191 10.095Z" fill="#000095"/>
<path d="M93.332 4.17492H95.5075V5.10753C95.9955 4.29337 96.7654 3.87878 97.8315 3.87878C99.6667 3.87878 100.629 5.10753 100.629 7.4607V11.8718H98.4539V7.77187C98.4539 6.42467 98.0693 5.89251 97.1067 5.89251C96.0556 5.89251 95.5084 6.63241 95.5084 7.83109V11.8718H93.3329V4.17492H93.332Z" fill="#000095"/>
<path d="M23.291 6.40987C23.291 2.97646 25.7335 0.696655 28.9892 0.696655C31.1055 0.696655 33.0741 1.71766 33.9625 3.61205L32.0973 4.84079C31.6827 3.61205 30.5132 2.73867 28.945 2.73867C26.888 2.73867 25.5699 4.26355 25.5699 6.36479C25.5699 8.59951 26.8579 10.0501 28.8407 10.0501C30.4098 10.0501 31.4157 9.19178 31.7561 7.85961H28.8407V5.84677H34.0067V11.8711H31.772V10.6875C31.1797 11.4124 30.2029 12.0939 28.6047 12.0939C25.4966 12.0939 23.291 9.74073 23.291 6.41075V6.40987Z" fill="#0000AA"/>
</svg>
