<?xml version="1.0" encoding="UTF-8"?>
<svg id="Layer_2" xmlns="http://www.w3.org/2000/svg" version="1.1" viewBox="0 0 58.9 58.9">
  <!-- Generator: Adobe Illustrator 29.8.1, SVG Export Plug-In . SVG Version: 2.1.1 Build 2)  -->
  <defs>
    <style>
      .st0 {
        fill: #00a;
      }
    </style>
  </defs>
  <g id="Layer_1-2">
    <path class="st0" d="M54.9,14.6C49.7,5.8,40.3,0,29.5,0S9.2,5.8,4.1,14.6C1.5,18.9,0,24,0,29.5s1.5,10.5,4.1,14.9c5.1,8.7,14.6,14.6,25.4,14.6s20.3-5.9,25.4-14.6c2.6-4.4,4-9.5,4-14.9s-1.5-10.5-4.1-14.9ZM26.2,48.2h-2.7l1.1-3.9.6-2.2,3-10.3h-11.8l-2.8,3.7h-2l1.7-6.1-1.7-6.1h2l2.8,3.8h11.7l-3-10.4-.6-2.2-1.1-3.9h2.7l2.3,3.9.4.6,7,11.9h11.3c2.9.4,2.8,4.6-.2,4.7h-11.1s-7,11.9-7,11.9l-.4.6-2.3,3.9h0Z"/>
  </g>
</svg>