<svg width="130" height="13" viewBox="0 0 130 13" fill="none" xmlns="http://www.w3.org/2000/svg">
<path d="M0 0.992676H2.2798V11.871H0V0.992676Z" fill="#000064"/>
<path d="M4.82488 9.37024V5.99606H3.41846V4.17593H4.82488V2.84376L7.00038 1.21545V4.17593H9.13167V5.99606H7.00038V9.07499C7.00038 9.87411 7.25231 10.111 7.96216 10.111C8.24326 10.111 8.76128 10.0518 9.07244 9.97754V11.8719C8.79134 11.9904 7.93298 12.0646 7.65188 12.0646C5.80169 12.0646 4.82488 11.2655 4.82488 9.37113V9.37024Z" fill="#000064"/>
<path d="M11.2478 3.47921H10.019V0.992554H12.5057V3.41998C12.5057 4.84055 11.5439 5.66973 10.019 5.80321V4.75215C10.9075 4.6779 11.2478 4.29336 11.2478 3.47921Z" fill="#000064"/>
<path d="M12.7275 9.87323L14.7704 8.99985C14.8447 10.0951 15.6288 10.4204 16.4721 10.4204C17.0494 10.4204 17.5974 10.1543 17.5974 9.72472C17.5974 8.34835 12.9202 9.53201 12.9202 6.45397C12.9202 4.95914 14.4451 3.87891 16.2361 3.87891C18.1605 3.87891 19.4777 4.72223 19.818 6.06943L17.7751 6.82436C17.7309 5.98103 17.1386 5.55141 16.2361 5.55141C15.5404 5.55141 15.1408 5.83252 15.1408 6.30634C15.1408 7.56425 19.9064 6.46899 19.9064 9.57709C19.9064 11.353 18.2781 12.0929 16.473 12.0929C14.5194 12.0929 13.0246 11.3672 12.7284 9.87235L12.7275 9.87323Z" fill="#000064"/>
<path d="M40.9951 12.094C44.1421 12.094 46.6932 9.54284 46.6932 6.39582C46.6932 3.2488 44.1421 0.697632 40.9951 0.697632C37.848 0.697632 35.2969 3.2488 35.2969 6.39582C35.2969 9.54284 37.848 12.094 40.9951 12.094Z" fill="#0000AA"/>
<path d="M38.0645 6.39573L37.4837 7.9489H37.9116L38.6064 6.82624C38.6064 6.82624 39.3869 6.94646 40.8765 6.96679L39.7847 10.4745H40.3461L42.4261 6.95353H44.3718C44.3718 6.95353 44.7386 6.95 45.0957 6.75287C45.3857 6.59287 45.3857 6.17827 45.0957 6.01827C44.7386 5.82114 44.3718 5.81761 44.3718 5.81761L42.4199 5.83794L40.3399 2.31702H39.7786L40.8703 5.82468C39.3808 5.84501 38.6002 5.96523 38.6002 5.96523L37.9054 4.85583H37.4775L38.0645 6.39573Z" fill="white"/>
<path d="M49.9233 8.8815L52.0546 7.90469C52.0546 9.29609 53.0023 10.1394 54.467 10.1394C55.5773 10.1394 56.4357 9.63642 56.4357 8.82227C56.4357 6.54247 50.1894 8.45188 50.1894 4.08586C50.1894 2.07302 52.0096 0.696655 54.3336 0.696655C56.6576 0.696655 58.3 2.058 58.5961 3.78973L56.5683 4.67814C56.5683 3.49448 55.6949 2.65027 54.3336 2.65027C53.2533 2.65027 52.4834 3.13911 52.4834 3.92321C52.4834 6.26224 58.7296 4.30774 58.7296 8.74801C58.7296 10.8943 56.8352 12.093 54.467 12.093C52.0988 12.093 50.2928 10.9978 49.9233 8.8815Z" fill="#0000AA"/>
<path d="M59.4253 8.052C59.4253 5.62457 61.0686 3.87781 63.3776 3.87781C65.6866 3.87781 67.0338 5.50611 67.0338 7.85929C67.0338 8.12537 67.0188 8.34813 66.9746 8.67344H61.7352C61.9128 9.90218 62.5935 10.3168 63.5411 10.3168C64.4888 10.3168 65.0209 9.94638 65.4064 9.11808L66.9312 10.5245C66.1471 11.5756 64.9334 12.0936 63.4678 12.0936C60.9369 12.0936 59.4271 10.4061 59.4271 8.05288L59.4253 8.052ZM64.7239 7.19365C64.7389 6.2911 64.2651 5.65462 63.3175 5.65462C62.5184 5.65462 61.9261 6.11341 61.7484 7.19365H64.723H64.7239Z" fill="#0000AA"/>
<path d="M67.9204 9.79908C67.9204 8.46691 68.9414 7.68281 70.5406 7.40171C72.5092 7.06137 72.8345 7.06137 72.8345 6.4691C72.8345 5.87683 72.3607 5.56655 71.5324 5.56655C70.5255 5.56655 69.9341 6.18799 69.9341 7.10557L68.0247 6.36567C68.35 4.93008 69.6822 3.89404 71.5324 3.89404C73.6045 3.89404 74.9516 4.87085 74.9516 6.67683V10.2437L75.2328 11.872H73.2791L72.968 11.0287C72.4791 11.6652 71.5916 12.0798 70.5848 12.0798C69.0157 12.0798 67.9204 11.2364 67.9204 9.79996V9.79908ZM71.0877 10.4798C72.3165 10.4798 72.8345 9.754 72.8345 8.80725V8.36348C72.6126 8.51111 72.2422 8.58537 71.162 8.80725C70.5105 8.94073 70.1852 9.14758 70.1852 9.6656C70.1852 10.1244 70.5105 10.4798 71.0877 10.4798Z" fill="#0000AA"/>
<path d="M75.9717 9.87311L78.0146 8.99973C78.0888 10.095 78.8729 10.4203 79.7163 10.4203C80.2935 10.4203 80.8416 10.1542 80.8416 9.7246C80.8416 8.34823 76.1644 9.53189 76.1644 6.45384C76.1644 4.95902 77.6893 3.87878 79.4802 3.87878C81.4047 3.87878 82.7218 4.72211 83.0621 6.06931L81.0192 6.82423C80.975 5.98091 80.3828 5.55129 79.4802 5.55129C78.7845 5.55129 78.385 5.8324 78.385 6.30621C78.385 7.56413 83.1505 6.46887 83.1505 9.57697C83.1505 11.3529 81.5222 12.0928 79.7171 12.0928C77.7635 12.0928 76.2687 11.3679 75.9726 9.87222L75.9717 9.87311Z" fill="#0000AA"/>
<path d="M83.772 7.99375C83.772 5.59637 85.5629 3.87878 88.0195 3.87878C90.4761 3.87878 92.2671 5.59549 92.2671 7.99375C92.2671 10.392 90.4761 12.0937 88.0195 12.0937C85.5629 12.0937 83.772 10.377 83.772 7.99375ZM88.0195 10.095C89.1449 10.095 90.0032 9.29586 90.0032 7.99286C90.0032 6.68987 89.1449 5.8766 88.0195 5.8766C86.8942 5.8766 86.0359 6.67572 86.0359 7.99286C86.0359 9.31001 86.8942 10.095 88.0195 10.095Z" fill="#0000AA"/>
<path d="M93.3325 4.17492H95.508V5.10753C95.996 4.29337 96.7659 3.87878 97.832 3.87878C99.6672 3.87878 100.63 5.10753 100.63 7.4607V11.8718H98.4543V7.77187C98.4543 6.42467 98.0698 5.89251 97.1071 5.89251C96.0561 5.89251 95.5089 6.63241 95.5089 7.83109V11.8718H93.3334V4.17492H93.3325Z" fill="#0000AA"/>
<path d="M23.291 6.40987C23.291 2.97646 25.7335 0.696655 28.9892 0.696655C31.1055 0.696655 33.0741 1.71766 33.9625 3.61205L32.0973 4.84079C31.6827 3.61205 30.5132 2.73867 28.945 2.73867C26.888 2.73867 25.5699 4.26355 25.5699 6.36479C25.5699 8.59951 26.8579 10.0501 28.8407 10.0501C30.4098 10.0501 31.4157 9.19178 31.7561 7.85961H28.8407V5.84677H34.0067V11.8711H31.772V10.6875C31.1797 11.4124 30.2029 12.0939 28.6047 12.0939C25.4966 12.0939 23.291 9.74073 23.291 6.41075V6.40987Z" fill="#0000AA"/>
</svg>
